<?xml version="1.0" standalone="no"?>
<!DOCTYPE svg PUBLIC "-//W3C//DTD SVG 20010904//EN"
 "http://www.w3.org/TR/2001/REC-SVG-20010904/DTD/svg10.dtd">
<svg version="1.0" xmlns="http://www.w3.org/2000/svg"
 width="200.000000pt" height="200.000000pt" viewBox="0 0 200.000000 200.000000"
 preserveAspectRatio="xMidYMid meet">
<metadata>
Created by potrace 1.11, written by Peter Selinger 2001-2013
</metadata>
<g transform="translate(0.000000,200.000000) scale(0.100000,-0.100000)"
fill="#000000" stroke="none">
<path d="M894 1880 c-53 -23 -107 -79 -128 -133 -15 -38 -22 -44 -84 -69 -212
-86 -387 -275 -461 -499 -32 -98 -33 -104 -36 -244 -2 -101 1 -146 16 -203 81
-319 329 -555 644 -617 101 -19 281 -13 374 15 270 78 469 270 563 541 30 89
32 102 32 244 1 157 -6 196 -56 325 -44 112 -148 248 -249 326 -68 52 -186
116 -248 135 -33 10 -43 19 -52 46 -15 47 -63 100 -113 125 -55 28 -148 32
-202 8z m421 -264 c97 -45 157 -87 232 -163 67 -69 130 -162 110 -164 -40 -3
-66 -6 -97 -12 -19 -4 -48 -9 -65 -11 -96 -16 -234 -39 -260 -43 -16 -2 -97
-15 -180 -28 -82 -13 -170 -27 -195 -31 -25 -3 -56 -8 -70 -10 -14 -3 -36 -6
-50 -8 -14 -2 -99 -16 -190 -30 -91 -15 -176 -29 -190 -31 -14 -2 -44 -6 -68
-10 l-43 -7 7 29 c50 208 207 409 394 503 95 47 94 47 113 -13 32 -101 117
-161 227 -161 110 0 195 64 226 170 8 30 18 54 20 54 3 0 38 -15 79 -34z m435
-838 c0 -43 -58 -187 -103 -260 -140 -222 -381 -357 -642 -359 -256 -2 -510
135 -646 349 -43 68 -44 67 41 77 53 7 70 9 278 45 31 5 75 12 97 15 22 2 51
7 65 10 14 2 84 13 155 25 125 19 407 63 470 74 17 2 50 7 75 11 65 9 100 15
145 25 62 12 65 12 65 -12z"/>
</g>
</svg>
